<?xml version="1.0" standalone="no"?>
<!DOCTYPE svg PUBLIC "-//W3C//DTD SVG 20010904//EN"
 "http://www.w3.org/TR/2001/REC-SVG-20010904/DTD/svg10.dtd">
<svg version="1.0" xmlns="http://www.w3.org/2000/svg"
 width="360.000000pt" height="360.000000pt" viewBox="0 0 360.000000 360.000000"
 preserveAspectRatio="xMidYMid meet">

<g transform="translate(0.000000,360.000000) scale(0.100000,-0.100000)"
fill="#000000" stroke="none">
<path d="M0 1800 l0 -1800 1800 0 1800 0 0 1800 0 1800 -1800 0 -1800 0 0
-1800z m1985 1155 c121 -19 199 -45 330 -110 325 -160 540 -451 616 -836 21
-105 16 -338 -9 -445 -42 -177 -101 -306 -199 -432 -95 -124 -118 -146 -238
-237 -112 -84 -172 -119 -266 -155 -64 -24 -69 -24 -69 -6 0 8 -16 37 -35 65
l-36 52 36 41 c19 23 35 50 35 61 0 12 -37 57 -87 107 l-88 87 8 64 c4 35 10
65 11 67 2 2 37 8 78 14 85 11 172 40 201 65 16 15 18 26 13 69 -5 40 -2 55
10 65 10 8 14 22 10 39 -3 15 0 32 6 38 7 7 11 32 9 56 -2 40 0 45 28 54 16 6
35 20 41 31 12 24 13 22 -63 147 -33 55 -46 86 -42 102 3 12 8 34 11 48 4 17
-3 57 -21 111 -27 80 -28 87 -16 148 15 76 7 176 -17 205 -30 34 -170 106
-227 117 -16 3 -39 11 -51 18 -37 23 -90 29 -114 12 -15 -10 -34 -13 -56 -10
-21 3 -34 1 -34 -5 0 -6 -35 -12 -87 -15 -104 -5 -152 -16 -213 -47 -50 -25
-158 -121 -179 -160 -8 -14 -29 -42 -47 -62 -18 -21 -37 -50 -40 -65 -4 -16
-14 -38 -22 -50 -9 -16 -12 -32 -6 -50 4 -16 6 -32 5 -37 -1 -5 6 -54 15 -110
19 -111 46 -173 120 -282 63 -91 80 -134 93 -224 8 -61 8 -77 -3 -85 -8 -6
-20 -40 -27 -75 -6 -36 -17 -74 -22 -85 -6 -11 -10 -28 -9 -37 2 -9 -7 -22
-20 -29 -13 -6 -26 -18 -31 -25 -4 -7 -42 -40 -85 -74 -108 -87 -123 -99 -162
-134 -19 -17 -28 -22 -20 -12 14 17 12 21 -15 40 -56 39 -114 109 -180 217
-85 139 -99 174 -135 316 -69 281 -55 503 47 752 199 484 723 772 1248 686z
m-670 -575 c3 -5 1 -10 -4 -10 -6 0 -11 5 -11 10 0 6 2 10 4 10 3 0 8 -4 11
-10z"/>
</g>
</svg>
